PathFileType	4	(X/Y/Z)	Patient4_TMGait_0pt4_02_left_34.trc.trc
DataRate	CameraRate	NumFrames	NumMarkers	Units	OrigDataRate	OrigDataStartFrame	OrigNumFrames
75.268817204301	75.268817204301	5	33	mm	75.268817204301	106	       141
Frame#	Time	Sacral			L.Shoulder			Chest			R.Shoulder			Neck			R.ASIS			L.ASIS			R.Thigh.Superior			R.Thigh.Lateral			R.Thigh.Inferior			R.Patella			L.Thigh.Superior			L.Thigh.Lateral			L.Thigh.Inferior			L.Patella			L.Shank.Superior			L.Shank.Lateral			L.Shank.Inferior			R.Shank.Superior			R.Shank.Lateral			R.Shank.Inferior			R.Heel			R.Midfoot.Superior			R.Midfoot.Lateral			R.Toe			L.Heel			L.Midfoot.Lateral			L.Midfoot.Superior			L.Toe			L.Elbow			L.Wrist			R.Elbow			R.Wrist			
		X1	Y1	Z1	X2	Y2	Z2	X3	Y3	Z3	X4	Y4	Z4	X5	Y5	Z5	X6	Y6	Z6	X7	Y7	Z7	X8	Y8	Z8	X9	Y9	Z9	X10	Y10	Z10	X11	Y11	Z11	X12	Y12	Z12	X13	Y13	Z13	X14	Y14	Z14	X15	Y15	Z15	X16	Y16	Z16	X17	Y17	Z17	X18	Y18	Z18	X19	Y19	Z19	X20	Y20	Z20	X21	Y21	Z21	X22	Y22	Z22	X23	Y23	Z23	X24	Y24	Z24	X25	Y25	Z25	X26	Y26	Z26	X27	Y27	Z27	X28	Y28	Z28	X29	Y29	Z29	X30	Y30	Z30	X31	Y31	Z31	X32	Y32	Z32	X33	Y33	Z33	

106	46.865000000000	825.736676998088	1006.800907211199	539.743672658847	972.018059259130	1440.532122209847	346.676136059021	1099.658125544620	1371.925889426558	488.996693007532	1044.020771276366	1439.352155969129	676.161998570253	976.948282633567	1499.494125814043	506.043067199939	1067.625837206744	944.023231771512	625.244441488355	1019.191491151898	973.333580309932	355.395887678802	1089.880484109616	739.147397386736	589.882128597401	1008.206464297622	632.933892986108	659.113818304576	1072.579490341685	578.387115675512	571.992663865227	1066.685889715725	493.577941764491	577.958488584739	1106.389693731140	792.859416198971	369.327893443533	1060.216411280994	667.502113637082	287.359549842247	1168.686911783984	609.645754502272	339.801832354884	1195.088689350620	538.835138024897	327.773303466308	1166.390699791315	464.497755105735	314.859316936829	1074.251728465304	351.673605467369	264.018265687104	1146.803694350999	236.008887380408	305.632214836757	1039.898045139310	404.145429588144	585.456364376981	971.240728486369	299.449629826345	648.716773839448	1008.884729154393	206.012946528565	580.667210342605	874.014211553758	42.107102537070	551.988474459777	1045.358732351025	96.457448477284	583.415260445863	959.087701656390	36.804694943187	625.017574837111	1166.752402551678	45.768429524923	607.575118545770	1039.741395952931	67.048965438870	343.137640772791	1105.530272743957	70.107290221766	256.378784699269	1186.462186097271	138.773041638840	275.667041125069	1312.528180151079	98.344369097198	232.677553987646	877.105706223792	1094.737156456701	251.282688561712	882.158249281018	833.811410851598	248.508452917128	1148.578712471371	1111.180783889917	799.933499968015	1394.981038327630	1059.673508603896	748.087906511901	
107	46.878285714286	825.051987971020	1007.104459444723	541.077898688568	971.110078340209	1440.424333485947	347.287414879400	1099.595361122109	1371.477783812002	488.677682590823	1045.491862549641	1439.161418698315	676.201197722761	977.190665872348	1499.351844611243	506.509172016871	1067.341912678429	943.740905464255	625.191895317741	1017.584021540459	973.085636726896	355.477805493378	1087.960428254194	738.594444349509	589.778158501630	1006.007187747363	632.761727323297	659.541111247714	1069.297510822129	577.912985059942	572.114829579387	1062.852070342164	493.206570116517	578.255242808346	1103.401886284829	791.739351585093	370.328154971502	1057.792698333088	667.371666909383	287.007162877668	1164.987266414350	608.610379171908	341.477406108179	1192.340863693006	540.032856295269	328.886749393338	1167.051881012196	466.514553707235	314.890259619854	1081.774575890391	348.939183821021	262.566800650207	1160.642321434817	237.013397350939	303.981301061482	1035.717945597011	403.848399825223	585.706349983035	966.878232810496	299.312540227168	649.189003773546	1003.982759180837	205.836681504709	580.829114417835	868.642700873334	42.140849637319	552.033882906154	1040.044124823386	96.409597319249	583.461678978060	953.747255005596	36.791040749486	625.057822133314	1161.431003354499	45.594679144885	607.593840208298	1062.714606862192	62.441974099020	340.229659660243	1129.245582193323	68.432419845012	253.997093267291	1206.764014244972	140.951309886565	273.698758110809	1335.170045938675	106.351042053569	231.939985338765	870.318150261066	1096.056585916254	254.401827902788	867.757453906981	835.129680665910	254.159190516711	1156.023283274953	1113.649768852813	799.275114064110	1404.100835323985	1077.477245953410	744.601217249709	
108	46.891571428571	824.440280414569	1007.331671427615	542.222237069455	970.229609317179	1440.353374001271	347.749156283014	1099.486299593036	1371.030923408093	488.248992931683	1046.808518279760	1438.900279248240	676.104369607060	977.378639757489	1499.197277446793	506.838218299059	1067.121844176802	943.509382054714	625.022568539980	1016.067024839589	972.736166998787	355.429255089961	1086.154182467872	738.051784060510	589.748512415170	1003.776990544262	632.616848141077	659.915762867038	1066.051306088466	577.446016912391	572.274359259446	1059.029963697564	492.848696935285	578.568704455836	1100.516874313711	790.506310584875	371.211017787988	1055.431479983531	667.112984260874	286.564616127267	1161.467295649801	607.475714212376	342.791610408276	1189.606271532611	540.977398606755	329.803711419765	1167.434686210446	468.343532905840	314.928808445184	1088.619335592696	346.738231271250	261.288514678036	1172.965740228740	238.548533173450	302.738992354046	1031.513489644232	403.581610657731	585.969279196958	962.440268998467	299.224325205158	649.653898180034	999.065096975704	205.696669806473	581.023659187913	863.269471707102	42.178862546222	552.091159208127	1034.734763433977	96.375073935619	583.526711898383	948.403325962105	36.775363081210	625.104976246632	1156.106223492713	45.438742397351	607.611900888355	1083.340607311094	59.535672588851	337.887063941364	1150.695609322810	67.789298953472	252.338531410071	1225.011786593684	143.606303435340	272.388354402318	1355.369573034721	114.034546928939	232.305174277633	864.021678531602	1097.471158526414	257.177916295442	854.704500823538	836.721859046498	259.411996305493	1163.047055972303	1116.014228514560	798.284410580413	1411.809728377359	1094.870867404071	740.968219698035	
109	46.904857142857	823.921825762815	1007.486277743728	543.161491548912	969.357258459250	1440.327499153007	348.064364995922	1099.312202302622	1370.615099119186	487.722657619253	1047.934830938520	1438.597745712159	675.879617925326	977.488543323135	1499.042594542021	507.035135074678	1066.972448787831	943.337247960687	624.742548412337	1014.675190187071	972.323683769918	355.254395792726	1084.453870190623	737.523360625594	589.777140271339	1001.484313373676	632.510352239759	660.219682160452	1062.821309666488	576.988326471662	572.463982823377	1055.204567877426	492.507044906215	578.884934286571	1097.870777812417	789.276257143303	371.895453821160	1053.184878467570	666.719943702982	286.116336037354	1158.297774113802	606.336294799174	343.659220985704	1187.044221913467	541.691258951318	330.495376452319	1167.627767554694	469.928078578102	314.975182350685	1094.629419178051	345.025157548160	260.254962938683	1183.563044011822	240.374776881335	301.895940396596	1027.270224898863	403.352911597538	586.233745776760	957.909711914685	299.196116841000	650.089783498564	994.126495504744	205.598065994853	581.242218014772	857.896138385331	42.221915375884	552.158698273522	1029.431466928871	96.354079231270	583.608097850472	943.056786743439	36.760163655285	625.158053654425	1150.778119342497	45.300046430966	607.630598942693	1101.158855400463	58.029614245576	336.154198527131	1169.386783320651	67.887769017019	251.381456377711	1240.842334773666	146.423327810166	271.683951475282	1372.781487987994	120.988888925307	233.555332970807	858.183266793400	1098.957217692499	259.597477335747	843.013864113054	838.498213784976	264.180573895070	1169.635461834285	1118.280897054063	796.966446009514	1418.164867389567	1111.689226492289	737.231964250458	
110	46.918142857143	823.517786945912	1007.568205543396	543.878593307255	968.470060862049	1440.346427742820	348.238503064376	1099.057419873760	1370.254097848967	487.109044342521	1048.843655750905	1438.277344839097	675.535959202337	977.496336559368	1498.892436029704	507.106189903443	1066.898292799068	943.227642610779	624.356484254011	1013.447300106441	971.877902694466	354.953011372769	1082.843000105303	737.012006997690	589.837830764769	999.108354702543	632.450032802332	660.438869564266	1059.595770286575	576.541068036439	572.675033084941	1051.371713712139	492.180161305106	579.193567585480	1095.594955904197	788.141248565069	372.304412536107	1051.093276754096	666.165249613230	285.745417307661	1155.613042586259	605.249911281937	344.044214722477	1184.789786038273	542.174721793891	330.955870838458	1167.701562462983	471.192491138682	315.042984070257	1099.661785147765	343.704871761395	259.532042018591	1192.267561249107	242.214798914704	301.441758958988	1022.984952212664	403.165272239287	586.491446596340	953.280748469304	299.234447534756	650.479891182042	989.165824201281	205.541916177527	581.476293669710	852.523574824747	42.270425956645	552.234084396475	1024.134210036830	96.345636731276	583.702657918398	937.708466350290	36.747150873475	625.215462524442	1145.446543591074	45.176455759491	607.651066733547	1115.810162638276	57.544704627936	335.070231667365	1184.897366588561	68.394750151429	251.081391933430	1253.953408585038	149.059510682461	271.514055845559	1387.116862889537	126.817277678179	235.406463561861	852.773439233492	1100.485629157007	261.648321437724	832.685916125913	840.367318932053	268.384356127717	1175.766220653464	1120.455098211444	795.338332563693	1423.244256531504	1127.783716701397	733.436148755562	
